<?xml version="1.0" encoding="UTF-8" standalone="no"?>
<!DOCTYPE svg PUBLIC "-//W3C//DTD SVG 1.1//EN"
 "http://www.w3.org/Graphics/SVG/1.1/DTD/svg11.dtd">
<!-- Generated by graphviz version 14.1.2 (20260124.0452)
 -->
<!-- Title: azure_network_topology Pages: 1 -->
<svg width="1368pt" height="737pt"
 viewBox="0.00 0.00 1368.00 737.00" xmlns="http://www.w3.org/2000/svg" xmlns:xlink="http://www.w3.org/1999/xlink">
<g id="graph0" class="graph" transform="scale(1 1) rotate(0) translate(4 732.62)">
<title>azure_network_topology</title>
<polygon fill="white" stroke="none" points="-4,4 -4,-732.62 1363.88,-732.62 1363.88,4 -4,4"/>
<text xml:space="preserve" text-anchor="middle" x="679.94" y="-709.42" font-family="Arial Bold" font-size="16.00">Azure Event Grid VNET Peering PoC</text>
<text xml:space="preserve" text-anchor="middle" x="679.94" y="-690.67" font-family="Arial Bold" font-size="16.00">Fully Private Event Hub Path (Main) + Webhook Path (Comparison)</text>
<g id="clust1" class="cluster">
<title>cluster_main_path</title>
<polygon fill="#c8e6c9" stroke="#c8e6c9" stroke-width="2" points="8,-8 8,-672.56 335,-672.56 335,-8 8,-8"/>
<text xml:space="preserve" text-anchor="middle" x="171.5" y="-656.21" font-family="Arial Bold" font-size="13.00">✅ MAIN: Fully Private Event Hub Path</text>
<text xml:space="preserve" text-anchor="middle" x="171.5" y="-638.21" font-family="Arial Bold" font-size="13.00">(All traffic via VNET peering &#45; NO public internet)</text>
</g>
<g id="clust2" class="cluster">
<title>cluster_webhook_path</title>
<polygon fill="#ffe0b2" stroke="#ffe0b2" stroke-dasharray="5,2" points="343,-183 343,-672.56 574,-672.56 574,-183 343,-183"/>
<text xml:space="preserve" text-anchor="middle" x="458.5" y="-656.21" font-family="Arial Bold" font-size="13.00">⚠️ &#160;COMPARISON: Webhook Path</text>
<text xml:space="preserve" text-anchor="middle" x="458.5" y="-638.21" font-family="Arial Bold" font-size="13.00">(Uses public internet for delivery)</text>
</g>
<g id="clust3" class="cluster">
<title>cluster_infrastructure</title>
<polygon fill="#e3f2fd" stroke="#e3f2fd" points="582,-183 582,-675.12 946,-675.12 946,-183 582,-183"/>
<text xml:space="preserve" text-anchor="middle" x="764" y="-658.77" font-family="Arial Bold" font-size="13.00">Network Infrastructure</text>
</g>
<g id="clust4" class="cluster">
<title>cluster_legend</title>
<polygon fill="#ffffff" stroke="#ffffff" points="991,-196 991,-640.81 1143,-640.81 1143,-196 991,-196"/>
<text xml:space="preserve" text-anchor="middle" x="1067" y="-625.41" font-family="Arial Bold" font-size="12.00">Legend</text>
</g>
<!-- dotnet_publish -->
<g id="node1" class="node">
<title>dotnet_publish</title>
<path fill="#4caf50" stroke="black" stroke-width="2" d="M190.88,-623.56C190.88,-623.56 123.12,-623.56 123.12,-623.56 117.12,-623.56 111.12,-617.56 111.12,-611.56 111.12,-611.56 111.12,-573.56 111.12,-573.56 111.12,-567.56 117.12,-561.56 123.12,-561.56 123.12,-561.56 190.88,-561.56 190.88,-561.56 196.88,-561.56 202.88,-567.56 202.88,-573.56 202.88,-573.56 202.88,-611.56 202.88,-611.56 202.88,-617.56 196.88,-623.56 190.88,-623.56"/>
<text xml:space="preserve" text-anchor="middle" x="157" y="-609.11" font-family="Arial" font-size="11.00" fill="white">.NET Function</text>
<text xml:space="preserve" text-anchor="middle" x="157" y="-595.61" font-family="Arial" font-size="11.00" fill="white">PublishEvent</text>
<text xml:space="preserve" text-anchor="middle" x="157" y="-582.11" font-family="Arial" font-size="11.00" fill="white">(Subscription 2)</text>
<text xml:space="preserve" text-anchor="middle" x="157" y="-568.61" font-family="Arial" font-size="11.00" fill="white">10.2.0.0/16</text>
</g>
<!-- eg_pe_main -->
<g id="node2" class="node">
<title>eg_pe_main</title>
<path fill="#2196f3" stroke="black" stroke-width="2" d="M216.75,-428C216.75,-428 97.25,-428 97.25,-428 91.25,-428 85.25,-422 85.25,-416 85.25,-416 85.25,-378 85.25,-378 85.25,-372 91.25,-366 97.25,-366 97.25,-366 216.75,-366 216.75,-366 222.75,-366 228.75,-372 228.75,-378 228.75,-378 228.75,-416 228.75,-416 228.75,-422 222.75,-428 216.75,-428"/>
<text xml:space="preserve" text-anchor="middle" x="157" y="-413.55" font-family="Arial" font-size="11.00" fill="white">Event Grid Topic</text>
<text xml:space="preserve" text-anchor="middle" x="157" y="-400.05" font-family="Arial" font-size="11.00" fill="white">(via Private Endpoint)</text>
<text xml:space="preserve" text-anchor="middle" x="157" y="-386.55" font-family="Arial" font-size="11.00" fill="white">10.1.1.4</text>
<text xml:space="preserve" text-anchor="middle" x="157" y="-373.05" font-family="Arial" font-size="11.00" fill="white">Public Access: DISABLED</text>
</g>
<!-- dotnet_publish&#45;&gt;eg_pe_main -->
<g id="edge1" class="edge">
<title>dotnet_publish&#45;&gt;eg_pe_main</title>
<path fill="none" stroke="#4caf50" stroke-width="4" d="M157,-560.71C157,-560.71 157,-444.9 157,-444.9"/>
<polygon fill="#4caf50" stroke="#4caf50" stroke-width="4" points="160.5,-444.9 157,-434.9 153.5,-444.9 160.5,-444.9"/>
<text xml:space="preserve" text-anchor="middle" x="198.25" y="-487.55" font-family="Arial" font-size="11.00" fill="#2e7d32"> &#160;1. Publish via</text>
<text xml:space="preserve" text-anchor="middle" x="198.25" y="-474.05" font-family="Arial" font-size="11.00" fill="#2e7d32"> &#160;VNET Peering &#160;</text>
</g>
<!-- eh_pe_main -->
<g id="node3" class="node">
<title>eh_pe_main</title>
<path fill="#2196f3" stroke="black" stroke-width="2" d="M216.75,-253C216.75,-253 97.25,-253 97.25,-253 91.25,-253 85.25,-247 85.25,-241 85.25,-241 85.25,-203 85.25,-203 85.25,-197 91.25,-191 97.25,-191 97.25,-191 216.75,-191 216.75,-191 222.75,-191 228.75,-197 228.75,-203 228.75,-203 228.75,-241 228.75,-241 228.75,-247 222.75,-253 216.75,-253"/>
<text xml:space="preserve" text-anchor="middle" x="157" y="-238.55" font-family="Arial" font-size="11.00" fill="white">Event Hub</text>
<text xml:space="preserve" text-anchor="middle" x="157" y="-225.05" font-family="Arial" font-size="11.00" fill="white">(via Private Endpoint)</text>
<text xml:space="preserve" text-anchor="middle" x="157" y="-211.55" font-family="Arial" font-size="11.00" fill="white">10.1.1.5</text>
<text xml:space="preserve" text-anchor="middle" x="157" y="-198.05" font-family="Arial" font-size="11.00" fill="white">Public Access: DISABLED</text>
</g>
<!-- eg_pe_main&#45;&gt;eh_pe_main -->
<g id="edge2" class="edge">
<title>eg_pe_main&#45;&gt;eh_pe_main</title>
<path fill="none" stroke="#4caf50" stroke-width="4" d="M157,-365.31C157,-365.31 157,-269.8 157,-269.8"/>
<polygon fill="#4caf50" stroke="#4caf50" stroke-width="4" points="160.5,-269.8 157,-259.8 153.5,-269.8 160.5,-269.8"/>
<text xml:space="preserve" text-anchor="middle" x="208" y="-312.55" font-family="Arial" font-size="11.00" fill="#2e7d32"> &#160;2. Deliver</text>
<text xml:space="preserve" text-anchor="middle" x="208" y="-299.05" font-family="Arial" font-size="11.00" fill="#2e7d32"> &#160;(Managed Identity) &#160;</text>
</g>
<!-- dotnet_consume -->
<g id="node4" class="node">
<title>dotnet_consume</title>
<path fill="#4caf50" stroke="black" stroke-width="2" d="M226.88,-78C226.88,-78 87.12,-78 87.12,-78 81.12,-78 75.12,-72 75.12,-66 75.12,-66 75.12,-28 75.12,-28 75.12,-22 81.12,-16 87.12,-16 87.12,-16 226.88,-16 226.88,-16 232.88,-16 238.88,-22 238.88,-28 238.88,-28 238.88,-66 238.88,-66 238.88,-72 232.88,-78 226.88,-78"/>
<text xml:space="preserve" text-anchor="middle" x="157" y="-63.55" font-family="Arial" font-size="11.00" fill="white">.NET Function</text>
<text xml:space="preserve" text-anchor="middle" x="157" y="-50.05" font-family="Arial" font-size="11.00" fill="white">ConsumeEventFromEventHub</text>
<text xml:space="preserve" text-anchor="middle" x="157" y="-36.55" font-family="Arial" font-size="11.00" fill="white">(Subscription 2)</text>
<text xml:space="preserve" text-anchor="middle" x="157" y="-23.05" font-family="Arial" font-size="11.00" fill="white">10.2.0.0/16</text>
</g>
<!-- eh_pe_main&#45;&gt;dotnet_consume -->
<g id="edge3" class="edge">
<title>eh_pe_main&#45;&gt;dotnet_consume</title>
<path fill="none" stroke="#4caf50" stroke-width="4" d="M157,-190.31C157,-190.31 157,-94.8 157,-94.8"/>
<polygon fill="#4caf50" stroke="#4caf50" stroke-width="4" points="160.5,-94.8 157,-84.8 153.5,-94.8 160.5,-94.8"/>
<text xml:space="preserve" text-anchor="middle" x="206.5" y="-137.55" font-family="Arial" font-size="11.00" fill="#2e7d32"> &#160;3. Poll/Consume</text>
<text xml:space="preserve" text-anchor="middle" x="206.5" y="-124.05" font-family="Arial" font-size="11.00" fill="#2e7d32"> &#160;via VNET Peering &#160;</text>
</g>
<!-- python_publish -->
<g id="node5" class="node">
<title>python_publish</title>
<path fill="#ff9800" stroke="black" d="M475,-623.56C475,-623.56 405,-623.56 405,-623.56 399,-623.56 393,-617.56 393,-611.56 393,-611.56 393,-573.56 393,-573.56 393,-567.56 399,-561.56 405,-561.56 405,-561.56 475,-561.56 475,-561.56 481,-561.56 487,-567.56 487,-573.56 487,-573.56 487,-611.56 487,-611.56 487,-617.56 481,-623.56 475,-623.56"/>
<text xml:space="preserve" text-anchor="middle" x="440" y="-609.11" font-family="Arial" font-size="11.00" fill="white">Python Function</text>
<text xml:space="preserve" text-anchor="middle" x="440" y="-595.61" font-family="Arial" font-size="11.00" fill="white">PublishEvent</text>
<text xml:space="preserve" text-anchor="middle" x="440" y="-582.11" font-family="Arial" font-size="11.00" fill="white">(Subscription 1)</text>
<text xml:space="preserve" text-anchor="middle" x="440" y="-568.61" font-family="Arial" font-size="11.00" fill="white">10.0.0.0/16</text>
</g>
<!-- eg_pe_webhook -->
<g id="node6" class="node">
<title>eg_pe_webhook</title>
<path fill="#ff9800" stroke="black" d="M487.75,-421.25C487.75,-421.25 392.25,-421.25 392.25,-421.25 386.25,-421.25 380.25,-415.25 380.25,-409.25 380.25,-409.25 380.25,-384.75 380.25,-384.75 380.25,-378.75 386.25,-372.75 392.25,-372.75 392.25,-372.75 487.75,-372.75 487.75,-372.75 493.75,-372.75 499.75,-378.75 499.75,-384.75 499.75,-384.75 499.75,-409.25 499.75,-409.25 499.75,-415.25 493.75,-421.25 487.75,-421.25"/>
<text xml:space="preserve" text-anchor="middle" x="440" y="-406.8" font-family="Arial" font-size="11.00" fill="white">Event Grid Topic</text>
<text xml:space="preserve" text-anchor="middle" x="440" y="-393.3" font-family="Arial" font-size="11.00" fill="white">(via Private Endpoint)</text>
<text xml:space="preserve" text-anchor="middle" x="440" y="-379.8" font-family="Arial" font-size="11.00" fill="white">10.1.1.4</text>
</g>
<!-- python_publish&#45;&gt;eg_pe_webhook -->
<g id="edge4" class="edge">
<title>python_publish&#45;&gt;eg_pe_webhook</title>
<path fill="none" stroke="#ff9800" stroke-width="2" d="M440,-561.14C440,-561.14 440,-434.56 440,-434.56"/>
<polygon fill="#ff9800" stroke="#ff9800" stroke-width="2" points="443.5,-434.56 440,-424.56 436.5,-434.56 443.5,-434.56"/>
<text xml:space="preserve" text-anchor="middle" x="477.5" y="-487" font-family="Arial" font-size="10.00" fill="#e65100"> &#160;Publish via</text>
<text xml:space="preserve" text-anchor="middle" x="477.5" y="-475" font-family="Arial" font-size="10.00" fill="#e65100"> &#160;VNET Peering &#160;</text>
</g>
<!-- python_consume -->
<g id="node7" class="node">
<title>python_consume</title>
<path fill="#ff9800" stroke="black" d="M490.75,-253C490.75,-253 389.25,-253 389.25,-253 383.25,-253 377.25,-247 377.25,-241 377.25,-241 377.25,-203 377.25,-203 377.25,-197 383.25,-191 389.25,-191 389.25,-191 490.75,-191 490.75,-191 496.75,-191 502.75,-197 502.75,-203 502.75,-203 502.75,-241 502.75,-241 502.75,-247 496.75,-253 490.75,-253"/>
<text xml:space="preserve" text-anchor="middle" x="440" y="-238.55" font-family="Arial" font-size="11.00" fill="white">Python Function</text>
<text xml:space="preserve" text-anchor="middle" x="440" y="-225.05" font-family="Arial" font-size="11.00" fill="white">consum_event</text>
<text xml:space="preserve" text-anchor="middle" x="440" y="-211.55" font-family="Arial" font-size="11.00" fill="white">(Subscription 1)</text>
<text xml:space="preserve" text-anchor="middle" x="440" y="-198.05" font-family="Arial" font-size="11.00" fill="white">Receives via Webhook</text>
</g>
<!-- eg_pe_webhook&#45;&gt;python_consume -->
<g id="edge5" class="edge">
<title>eg_pe_webhook&#45;&gt;python_consume</title>
<path fill="none" stroke="#f44336" stroke-width="2" stroke-dasharray="5,2" d="M440,-372.3C440,-372.3 440,-266.4 440,-266.4"/>
<polygon fill="#f44336" stroke="#f44336" stroke-width="2" points="443.5,-266.4 440,-256.4 436.5,-266.4 443.5,-266.4"/>
<text xml:space="preserve" text-anchor="middle" x="494.38" y="-312" font-family="Arial" font-size="10.00" fill="#c62828"> &#160;Webhook Delivery</text>
<text xml:space="preserve" text-anchor="middle" x="494.38" y="-300" font-family="Arial" font-size="10.00" fill="#c62828"> &#160;(PUBLIC INTERNET) &#160;</text>
</g>
<!-- vnet1 -->
<g id="node8" class="node">
<title>vnet1</title>
<polygon fill="#90caf9" stroke="black" points="684,-623.56 681,-627.56 660,-627.56 657,-623.56 590,-623.56 590,-561.56 684,-561.56 684,-623.56"/>
<text xml:space="preserve" text-anchor="middle" x="637" y="-609.11" font-family="Arial" font-size="11.00">VNET 1</text>
<text xml:space="preserve" text-anchor="middle" x="637" y="-595.61" font-family="Arial" font-size="11.00">Python Function</text>
<text xml:space="preserve" text-anchor="middle" x="637" y="-582.11" font-family="Arial" font-size="11.00">10.0.0.0/16</text>
<text xml:space="preserve" text-anchor="middle" x="637" y="-568.61" font-family="Arial" font-size="11.00">(Subscription 1)</text>
</g>
<!-- vnet2 -->
<g id="node9" class="node">
<title>vnet2</title>
<polygon fill="#90caf9" stroke="black" points="727.38,-428 724.38,-432 703.38,-432 700.38,-428 596.62,-428 596.62,-366 727.38,-366 727.38,-428"/>
<text xml:space="preserve" text-anchor="middle" x="662" y="-413.55" font-family="Arial" font-size="11.00">VNET 2</text>
<text xml:space="preserve" text-anchor="middle" x="662" y="-400.05" font-family="Arial" font-size="11.00">Event Grid + Event Hub</text>
<text xml:space="preserve" text-anchor="middle" x="662" y="-386.55" font-family="Arial" font-size="11.00">10.1.0.0/16</text>
<text xml:space="preserve" text-anchor="middle" x="662" y="-373.05" font-family="Arial" font-size="11.00">(Subscription 1)</text>
</g>
<!-- vnet1&#45;&gt;vnet2 -->
<g id="edge6" class="edge">
<title>vnet1&#45;&gt;vnet2</title>
<path fill="none" stroke="#2196f3" stroke-width="2" d="M640.31,-548.11C640.31,-548.11 640.31,-441.37 640.31,-441.37"/>
<polygon fill="#2196f3" stroke="#2196f3" stroke-width="2" points="636.81,-548.11 640.31,-558.11 643.81,-548.11 636.81,-548.11"/>
<polygon fill="#2196f3" stroke="#2196f3" stroke-width="2" points="643.81,-441.37 640.31,-431.37 636.81,-441.37 643.81,-441.37"/>
<text xml:space="preserve" text-anchor="middle" x="693.5" y="-481" font-family="Arial" font-size="10.00">VNET Peering</text>
</g>
<!-- vnet3 -->
<g id="node10" class="node">
<title>vnet3</title>
<polygon fill="#81c784" stroke="black" points="707.88,-253 704.88,-257 683.88,-257 680.88,-253 616.12,-253 616.12,-191 707.88,-191 707.88,-253"/>
<text xml:space="preserve" text-anchor="middle" x="662" y="-238.55" font-family="Arial" font-size="11.00">VNET 3</text>
<text xml:space="preserve" text-anchor="middle" x="662" y="-225.05" font-family="Arial" font-size="11.00">.NET Function</text>
<text xml:space="preserve" text-anchor="middle" x="662" y="-211.55" font-family="Arial" font-size="11.00">10.2.0.0/16</text>
<text xml:space="preserve" text-anchor="middle" x="662" y="-198.05" font-family="Arial" font-size="11.00">(Subscription 2)</text>
</g>
<!-- vnet2&#45;&gt;vnet3 -->
<g id="edge7" class="edge">
<title>vnet2&#45;&gt;vnet3</title>
<path fill="none" stroke="#4caf50" stroke-width="2" d="M662,-352.69C662,-352.69 662,-266.34 662,-266.34"/>
<polygon fill="#4caf50" stroke="#4caf50" stroke-width="2" points="658.5,-352.69 662,-362.69 665.5,-352.69 658.5,-352.69"/>
<polygon fill="#4caf50" stroke="#4caf50" stroke-width="2" points="665.5,-266.34 662,-256.34 658.5,-266.34 665.5,-266.34"/>
<text xml:space="preserve" text-anchor="middle" x="706.62" y="-312" font-family="Arial" font-size="10.00">VNET Peering</text>
<text xml:space="preserve" text-anchor="middle" x="706.62" y="-300" font-family="Arial" font-size="10.00">(Cross&#45;Subscription)</text>
</g>
<!-- dns -->
<g id="node11" class="node">
<title>dns</title>
<path fill="#9c27b0" stroke="black" d="M937.5,-634.75C937.5,-639.92 896.94,-644.12 847,-644.12 797.06,-644.12 756.5,-639.92 756.5,-634.75 756.5,-634.75 756.5,-550.38 756.5,-550.38 756.5,-545.2 797.06,-541 847,-541 896.94,-541 937.5,-545.2 937.5,-550.38 937.5,-550.38 937.5,-634.75 937.5,-634.75"/>
<path fill="none" stroke="black" d="M937.5,-634.75C937.5,-629.58 896.94,-625.38 847,-625.38 797.06,-625.38 756.5,-629.58 756.5,-634.75"/>
<text xml:space="preserve" text-anchor="middle" x="847" y="-615.61" font-family="Arial" font-size="11.00" fill="white">Private DNS Zones</text>
<text xml:space="preserve" text-anchor="middle" x="847" y="-602.11" font-family="Arial" font-size="11.00" fill="white">privatelink.eventgrid.azure.net</text>
<text xml:space="preserve" text-anchor="middle" x="847" y="-588.61" font-family="Arial" font-size="11.00" fill="white">privatelink.servicebus.windows.net</text>
<text xml:space="preserve" text-anchor="middle" x="847" y="-562.11" font-family="Arial" font-size="11.00" fill="white">Linked to all VNETs</text>
</g>
<!-- legend_private -->
<g id="node12" class="node">
<title>legend_private</title>
<path fill="#4caf50" stroke="black" stroke-width="2" d="M1112.5,-610.56C1112.5,-610.56 1021.5,-610.56 1021.5,-610.56 1015.5,-610.56 1009.5,-604.56 1009.5,-598.56 1009.5,-598.56 1009.5,-586.56 1009.5,-586.56 1009.5,-580.56 1015.5,-574.56 1021.5,-574.56 1021.5,-574.56 1112.5,-574.56 1112.5,-574.56 1118.5,-574.56 1124.5,-580.56 1124.5,-586.56 1124.5,-586.56 1124.5,-598.56 1124.5,-598.56 1124.5,-604.56 1118.5,-610.56 1112.5,-610.56"/>
<text xml:space="preserve" text-anchor="middle" x="1067" y="-595.61" font-family="Arial" font-size="11.00" fill="white">Fully Private Path</text>
<text xml:space="preserve" text-anchor="middle" x="1067" y="-582.11" font-family="Arial" font-size="11.00" fill="white">(VNET peering only)</text>
</g>
<!-- legend_public -->
<g id="node13" class="node">
<title>legend_public</title>
<path fill="#ff9800" stroke="black" d="M1122.62,-421.25C1122.62,-421.25 1011.38,-421.25 1011.38,-421.25 1005.38,-421.25 999.38,-415.25 999.38,-409.25 999.38,-409.25 999.38,-384.75 999.38,-384.75 999.38,-378.75 1005.38,-372.75 1011.38,-372.75 1011.38,-372.75 1122.62,-372.75 1122.62,-372.75 1128.62,-372.75 1134.62,-378.75 1134.62,-384.75 1134.62,-384.75 1134.62,-409.25 1134.62,-409.25 1134.62,-415.25 1128.62,-421.25 1122.62,-421.25"/>
<text xml:space="preserve" text-anchor="middle" x="1067" y="-406.8" font-family="Arial" font-size="11.00" fill="white">Hybrid Path</text>
<text xml:space="preserve" text-anchor="middle" x="1067" y="-393.3" font-family="Arial" font-size="11.00" fill="white">(Private publish,</text>
<text xml:space="preserve" text-anchor="middle" x="1067" y="-379.8" font-family="Arial" font-size="11.00" fill="white">Public webhook delivery)</text>
</g>
<!-- legend_private&#45;&gt;legend_public -->
<!-- legend_pe -->
<g id="node14" class="node">
<title>legend_pe</title>
<path fill="#2196f3" stroke="black" d="M1102.75,-240C1102.75,-240 1031.25,-240 1031.25,-240 1025.25,-240 1019.25,-234 1019.25,-228 1019.25,-228 1019.25,-216 1019.25,-216 1019.25,-210 1025.25,-204 1031.25,-204 1031.25,-204 1102.75,-204 1102.75,-204 1108.75,-204 1114.75,-210 1114.75,-216 1114.75,-216 1114.75,-228 1114.75,-228 1114.75,-234 1108.75,-240 1102.75,-240"/>
<text xml:space="preserve" text-anchor="middle" x="1067" y="-225.05" font-family="Arial" font-size="11.00" fill="white">Private Endpoint</text>
<text xml:space="preserve" text-anchor="middle" x="1067" y="-211.55" font-family="Arial" font-size="11.00" fill="white">10.1.1.x</text>
</g>
<!-- legend_public&#45;&gt;legend_pe -->
<!-- note -->
<g id="node15" class="node">
<title>note</title>
<polygon fill="#ffeb3b" stroke="black" stroke-width="2" points="1353.88,-616.81 1196.12,-616.81 1196.12,-568.31 1359.88,-568.31 1359.88,-610.81 1353.88,-616.81"/>
<polyline fill="none" stroke="black" stroke-width="2" points="1353.88,-616.81 1353.88,-610.81"/>
<polyline fill="none" stroke="black" stroke-width="2" points="1359.88,-610.81 1353.88,-610.81"/>
<text xml:space="preserve" text-anchor="middle" x="1278" y="-602.36" font-family="Arial" font-size="11.00">KEY: Event Hub path achieves</text>
<text xml:space="preserve" text-anchor="middle" x="1278" y="-588.86" font-family="Arial" font-size="11.00">100% private communication</text>
<text xml:space="preserve" text-anchor="middle" x="1278" y="-575.36" font-family="Arial" font-size="11.00">(No public internet)</text>
</g>
</g>
</svg>
